<?xml version="1.0" encoding="UTF-8" standalone="no"?>
<!-- Generator: Adobe Illustrator 16.0.0, SVG Export Plug-In . SVG Version: 6.00 Build 0)  -->

<svg
   xmlns:dc="http://purl.org/dc/elements/1.1/"
   xmlns:cc="http://creativecommons.org/ns#"
   xmlns:rdf="http://www.w3.org/1999/02/22-rdf-syntax-ns#"
   xmlns:svg="http://www.w3.org/2000/svg"
   xmlns="http://www.w3.org/2000/svg"
   xmlns:xlink="http://www.w3.org/1999/xlink"
   xmlns:sodipodi="http://sodipodi.sourceforge.net/DTD/sodipodi-0.dtd"
   xmlns:inkscape="http://www.inkscape.org/namespaces/inkscape"
   version="1.1"
   id="Layer_1"
   x="0px"
   y="0px"
   width="3438.345px"
   height="841.89px"
   viewBox="0 0 3438.345 841.89"
   enable-background="new 0 0 3438.345 841.89"
   xml:space="preserve"
   sodipodi:docname="uwclogo.svg"
   inkscape:version="0.92.1 r"><metadata
     id="metadata3862"><rdf:RDF><cc:Work
         rdf:about=""><dc:format>image/svg+xml</dc:format><dc:type
           rdf:resource="http://purl.org/dc/dcmitype/StillImage" /><dc:title></dc:title></cc:Work></rdf:RDF></metadata><defs
     id="defs3860" /><sodipodi:namedview
     pagecolor="#ffffff"
     bordercolor="#666666"
     borderopacity="1"
     objecttolerance="10"
     gridtolerance="10"
     guidetolerance="10"
     inkscape:pageopacity="0"
     inkscape:pageshadow="2"
     inkscape:window-width="1904"
     inkscape:window-height="1022"
     id="namedview3858"
     showgrid="false"
     inkscape:zoom="0.49849565"
     inkscape:cx="1378.2399"
     inkscape:cy="205.199"
     inkscape:window-x="5"
     inkscape:window-y="47"
     inkscape:window-maximized="1"
     inkscape:current-layer="g3855"
     inkscape:pagecheckerboard="true" /><g
     id="g3855"><defs
       id="defs3792"><rect
         id="SVGID_1_"
         x="49.208"
         y="55.263"
         width="3334.125"
         height="731.364" /></defs><clipPath
       id="SVGID_2_"><use
         xlink:href="#SVGID_1_"
         overflow="visible"
         id="use3794" /></clipPath><path
       clip-path="url(#SVGID_2_)"
       d="M411.69,138.018h-2.927c-11.61,3.265-23.335-2.996-36.705,10.193   c2.979,3.3,6.716,5.491,10.496,6.678C392.24,149.378,410.592,152.295,411.69,138.018"
       id="path3797"
       fill="#009482" /><path
       clip-path="url(#SVGID_2_)"
       d="M365.293,437.756c10.138,8.043,24.201,10.63,36.544,9.898   c1.773-0.286-6.118-12.566-38.044-17.953L365.293,437.756z"
       id="path3799"
       fill="#009482" /><path
       clip-path="url(#SVGID_2_)"
       d="M497.564,520.777l-37.63-11.127l-9.175-17.034l-3.874-2.265L432.7,485.98   c-10.121-10.324-18.87-17.494-29.09-19.852l-9.23-0.854l-20.107,8.201c-9.274,0.715-10.792-10.947-10.792-10.947   c-0.544-2.963-0.215-4.246-0.99-7.562c-2.076-2.765-6.133-4.177-12.777-2.282c2.578-6.172,4.621-13.341,1.345-20.048   c-7.444,0-10.075,8.399-15.007,12.481c-11.38-3.217-19.03-2.344-15.839-6.033c4.372-2.909,2.248-27.746,6.084-26.301   c10.835,1.722,29.66-17.566,40.547,0.053c1.827,4.826,4.306,11.836,11.433,8.491c-0.33-5.948,3.469-15.409-3.506-18.81   c-5.866-0.273,33.166-26.297,47.389-43.915c7.893-4.736,18.78,9.344,24.328-4.201l-0.875-5.262l-14.866-9.738   c-1.427-4.271,19.272-7.43,20.726-3.432c-0.615,6.881,10.032,19.323,21.624,19.671c-4.439-11.931,5.555-29.062,1.481-34.715   l-11.379-14.394l-0.981-3.397l1.766-9.669c0,0,0.535-6.643-1.411-8.594c-4.865-4.88-12.27,8.121-17.93,7.758   c0,0,2.066-15.848-10.462-18.354c-6.501-1.274-13.484-0.33-14.213,7.339c-3.721,15.437-9.365,32.293-23.205,41.023   c5.635-17.898-14.127-24.621-19.457-38.81l0.346-2.981l15.179-19.172l3.469-0.784l6.151,3.434l3.551,1.971l11.887,1.427   l3.435-2.942c-14.098-14.008,11.815-21.169,16.604-30.827l11.958,11.744c6.832,8.31-19.412,10.61-23.158,17.604   c0,0,20.51,25.548,40.949,1.479l8.417-8.052c0-8.4-8.239-15.422-13.458-22.775c-6.373-10.596-2.21-23.784-9.754-32.936   c-18.059-8.835-24.435-4.358-24.435-4.358s-0.26,0.872-0.26,1.202c-0.598,3.836-2.19,15.456,1.134,19.637   c0.125,1.224,0.474,2.248-1.009,4.014c-8.032,9.72-9.745,10.088-11.813,11.395c-18.665-11.339,8.257-23.121,5.661-35.568   c-18.209-8.749-23.283,2.059-23.283,2.059c-2.114,3.539,0.89,23.818-2.578,25.44c-17.256,8.126-21.001-2.14-21.58-5.091   c5.128-4.424,16.767-3.708,16.767-12.878c-0.367-7.837,0.766-16.835-6.831-20.509c-9.883,1.952-21.573-29.329-39.561-19.048   c-1.479,6.204-7.286,12.305-5.047,19.278l4.353,0.885l15.667-3.344c7.395,4.744-4.219,9.97-7.545,14.687   c-8.596,9.166,7.894,14.293,11.272,20.545c-5.226,3.211-13.08,2.915-18.7,2.915c10.863-17.969-9.478-23.962-19.065-36.248   c0,0-1.535-1.722-3.362,0.364c-5.057,5.717-19.45,7.215-22.881,3.086l-8.17-9.988h-4.951c-12.859,2.597-13.473-6.517-23.891-4.512   c-4.707,3.362-6.17,1.569-13.873,6.224c-6.869,3.765-11.103-2.388-11.103-2.388s-12.405,7.578-23.784,17.476   c-11.467,9.917-15.524,13.771-24.575,22.866c-5.558,5.68,9.549,19.326,8.908,25.096c-0.678,5.769-19.048,5.137-26.19,11.012   l-0.125,1.589c16.504-3.267,12.162,7.285,49.58-15.634c6.673-2.578,20.421-6.937,23.893,3.033   c3.45,6.572,6.866,13.366,9.076,20.475c8.784,14.446-9.425,26.171,3.329,40.887c5.732,7.232,2.183,27.798-5.63,34.677   c-6.445,13.104,1.349,27.766,4.897,29.358c10.879,15.063,6.679,35.484,17.548,50.531c1.498,1.773,2.612,6.578,6.013,3.635   c0-8.803-6.013-16.088-3.765-24.872c5.683,12.165,18.737,21.036,14.973,35.718c0,0-4.674,5.537,3.745,7.24   c8.195,6.249,11.449,16.988,33.271,14.864c0,0,4.951,0.321,5.869,3.444c0.784,3.066,15.615,20.723,33.199,21.331   c0,0,2.943,1.496,3.541,10.055c0.517,8.581-6.993,17.696-14.313,23.438c0,0-5.228,5.527,18.532,36.813   c6.759,2.852,15.328,2.852,20.207,8.846c4.983,5.727-9.098,17.088-10.051,26.469c-0.33,4.029,6.707,9.275,6.305,13.338   c-0.33,3.637-1.133,6.676-2.267,11.881c-2.765,12.754-1.844,31.285-2.157,34.809c-0.259,2.791-3.469,8.332-0.819,8.295   c11.645,2.018,1.517,10.637,0.803,16.092c1.862,13.176,7.871,22.74,18.644,32.268l5.63-6.039c1.934-2.566-1.08-4.969-5.63-7.885   c0.388-6.289,9.009-12.055,3.015-18.344c6.778-12.504,6.36-36.26,27.691-34.424c0.455-6.264-6.357-10.648-5.975-16.18   c0,0,10.228,12.133,27.707-9.021c2.629-3.207,1.043-15.676,1.043-15.676c1.168-9.258,26.86-18.068,26.86-18.068   c9.316-4.924,25.039-45.178,15.318-54.789L497.564,520.777z"
       id="path3801"
       fill="#009482" /><path
       clip-path="url(#SVGID_2_)"
       d="M412.137,177.95c2.941,9.516,31.835,11.434,42.26,14.258l3.727-3.662   c-11.271-14.599-24.638-20.163-43.945-25.194c0,0-1.291-0.32-1.692-0.417C411.181,164.27,409.959,168.943,412.137,177.95"
       id="path3803"
       fill="#009482" /><path
       clip-path="url(#SVGID_2_)"
       d="M375.396,170.521l1.81,2.407c0.615,1.239,1.382,2.161,2.204,2.828l0.131,0.17   c5.548,4.359,14.063-2.157,21.732-1.32c6.357-3.247,4.825-17.096,2.194-17.569c-12.403-1.656-14.499-3.761-32.95,4.406   C370.518,161.443,369.036,165.643,375.396,170.521"
       id="path3805"
       fill="#009482" /><path
       clip-path="url(#SVGID_2_)"
       d="M562.71,177.798c-6.866-13.714-14.188,2.268-20.27-2.721l-8.955-34.554   l-23.843,5.769c-10.907,8.99-25.301-3.19-25.301-3.19c-0.891-0.367-8.107-20.86-8.295-24.168   c-11.155,6.43-26.938,25.756-31.405,35.161c-6.013-7.329-10.835-19.073-23.178-13.204v1.46c7.464,5.86,10.129,26.353,22.498,17.623   c4.058,1.828,7.856,4.726,10.443,8.052c-2.301,1.865-6.75,1.425-8.232,3.691l17.972,17.567c13.936-5.02,9.692-17.567,15.687-25.699   c8.621-1.036,16.878-4.032,25.477-2.917c3.709,1.463,8.273,5.842,6.758,9.567l-17.256-0.785   c-4.109,3.329-1.479,10.318-2.245,13.978c3.378,4.048-4.112,11.716,3.78,11.716c21.296,2.909,13.964,27.636,12.983,31.123   c-4.967,10.835-8.864,25.512-10.745,38.515c0,0,0.68,21.394,2.248,31.505c0,0,10.032,3.727,20.107-7.357l4.353-4.983   c3.263-3.432,7.669-9.301,11.538-16.954c3.908-5.368,7.984-6.793,9.774-7.027c22.429,6.763,21.646-7.649,31.668-11.6   c3.013,0.535,2.023-10.319,1.008-14.243c-0.679-2.559,2.627-5.404,4.914-7.017c13.348-7.134,16.72-11.486,10.529-25.728   C588.623,194.269,568.979,192.771,562.71,177.798"
       id="path3807"
       fill="#009482" /><path
       clip-path="url(#SVGID_2_)"
       d="M991.2,544.143c0.329,9.504-3.763,19.762-1.514,27.004   c2.951,1.889,7.46,5.492,11.228,4.385l13.398-37.201l-6.021-5.906C999.743,530.303,1000.914,545.285,991.2,544.143"
       id="path3809"
       fill="#009482" /><path
       clip-path="url(#SVGID_2_)"
       d="M1061.203,470.018h2.229c7.46-1.783,4.147-10.238,5.966-15.338   c-1.421-2.228-4.048-1.855-5.966-2.889C1061.602,457.249,1060.874,464.561,1061.203,470.018"
       id="path3811"
       fill="#009482" /><path
       clip-path="url(#SVGID_2_)"
       d="M818.592,326.108c1.513,0.437,6.356-2.211,8.014-2.837   c2.964-1.062,2.758,0.437,2.758,0.437l-3.872,9.686l12.13-5.189c0,0,4.042-1.292,5.922-3.157c1.88-1.829,1.88-3.211,2.148-5.137   c-6.744-5.807-10.792-11.649-12.286-19.701c-2.722-7.596-8.188-6.098-10.193,0.929c-1.276,3.836,3.723,6.573,4.964,12.073   c-0.486-1.114-1.364-2.156-2.959-2.994c-1.713-0.642-3.356-0.91-5.058,0.694c-2.097,3.745-5.46,8.927-4.705,11.628   C815.995,324.296,817.021,325.652,818.592,326.108"
       id="path3813"
       fill="#009482" /><path
       clip-path="url(#SVGID_2_)"
       d="M808.435,261.456l-1.543-3.622c-10.773-0.73-19.355,4.023-29.822,4.422   c1.114,4.362,5.61,7.563,8.239,11.629c8.512-0.694,17.46-1.062,23.83-5.108C808.435,266.618,806.585,263.694,808.435,261.456"
       id="path3815"
       fill="#009482" /><path
       clip-path="url(#SVGID_2_)"
       d="M973.98,219.115c-0.386-2.56-2.603-4.406-3.717-6.558   c-7.473-16.022,8.942-24.44,15.686-35.837c-1.133-3.213-3.363-5.457-6.743-6.52c-5.611,4.751-14.535,8.765-15.617,16.782   c1.082,10.611-4.479,21.206-6.72,30.705C962.791,220.248,968.034,219.115,973.98,219.115"
       id="path3817"
       fill="#009482" /><path
       clip-path="url(#SVGID_2_)"
       d="M1130.518,459.049c0.16,0.092,2.577,4.406,4.743,10.631   c3.4,7.796,6.047,3.245,6.047-3.513c-0.709-8.774-9.863-8.918-8.381-17.69l10.437,6.563c4.06-3.998,6.363-8.758,9.726-13.137   c1.06-9.48-4.545-16.459-6.768-24.846c5.113-3.104,12.011-3.521,18.02-4.691c6.135-1.221,11.366-3.121,17.063-5.455   c0,0,6.259-9.042,7.617-12.949c1.307-3.817,2.073-16.346,2.073-16.346c-0.145-0.679-1.326-4.478-1.552-5.102   c0-0.053-0.049-0.069-0.049-0.069v-0.038c-4.775-11.559-14.957-19.063-11.197-29.678c8.563-2.541,7.654-0.141,14.297,3.453   c1.738,2.118,8.695,8.103,6.172,18.521c1.407,4.585,2.192,2.915,3.382,4.066c0,0,6.612-8.016,6.612-13.183   c0-5.1-10.206-17.422-10.206-17.422c5.729-3.45,7.772-8.09,8.657-13.109c1.381-7.677,0.123-16.293,5.548-22.686   c4.438,5.145,5.555,20.858,15.63,13.895c-7.461-14.938-9.896-33.051-16.888-40.542l-0.573-0.606h-0.049   c-3.594-3.522-8.619-5.713-16.036-5.599c0.367-7.679,1.861-14.633,4.458-21.152c9.695-4.914-14.172-12.966-5.349-20.385   c-0.473-0.564-0.989-1.072-1.538-1.607h-11.949c-20.668-24.363,6.164-40.92-24.522-56.581c-4.825,5.467-8.169-3.941-15.724-1.346   c-9.371,1.293-13.849-12.165-14.963-17.604l-18.07-6.759c-3.053-0.349-22.343-5.137-30.376-5.841   c-13.419-1.884-17.567,23.024-30.481,22.498c-20.07,1.417-9.665,25.479-23.102,34.975l-18.651,1.501l-5.939,24.833l-16.396-3.693   l-1.5,11.016c-10.475-2.614-13.838,7.999-21.615,11.673c-3.417-2.195-2.646-7.615-7.527-7.332   c-1.445,11.29-7.106,20.86-18.595,24.864c-1.114-2.559-4.895-1.812-4.509-5.118l8.22-7.285   c-7.104-12.744-21.278-18.282-35.07-19.746c-18.282,15.35-30.208,30.338-41.765,48.933c-1.202,7.525-4.109,15.125-3.033,22.664   h12.729c4.146,2.885,4.146,8.286,9.664,9.491c12.33,3.291,7.081-10.648,10.536-16.088c-3.542-5.334-2.865-10.63-0.635-15.704   v-0.088c2.847-6.285,8.108-12.332,11.028-17.809c-0.312,5.894-2.746,11.797-4.142,17.896v0.037   c-0.628,2.245-0.979,4.549-1.102,6.955c6.015,1.757,12.36,2.523,19.473,2.141c1.712-0.225,2.888,1.062,2.888,2.194   c-14.503-1.812-17.117,14.991-23.856,23.393l-20.879,2.889c-4.091-1.831-4.819-9.098-9.688-8.714l-1.502,12.342   c-3.549,1.668-6.632,4.352-9.663,7.18h-0.038c-4.216,3.869-9.516,8.506-14.884,8.918c-2.633,1.87-6.356,5.51-9.011,7.303   c1.54,4.779,9.011,5.545,11.969,9.516c1.483,13.107-12.765,7.83-20.599,9.95l-0.311,1.758v11.432v1.329v9.826l24.658,0.751   c0.785-3.521,1.73-7.072,2.877-10.524c1.757-4.983,3.955-9.791,6.764-14.276l16.451-2.979c4.969,5.243,15.051,9.31,17.025,16.417   c0.236,1.258,0.453,3.379,0.105,4.823c3.567-0.533,6.558-2.211,9.408-4.038c1.357-0.876,2.702-1.73,4.055-2.498   c-2.996-9.881-14.908-12.805-15.692-22.756c9.247,7.795,18.432,14.678,23.033,24.852c0.529,1.313,1.276,3.219,1.607,4.44   c3.014,0.367,6.319-0.766,8.169-1.517l-0.66-2.521l-2.228-8.399c2.173-2.177,5.534-1.829,8.101-2.962l4.428,11.361l2.298,6.244   l17.933,1.39c8.239-1.812,6.308,8.487,5.979,12.44c-16.054,13.454-29.466-10.248-47.78-0.732c-0.348,2.559,0.766,6.558-0.753,7.999   c-7.81-3.575-15.649-9.828-24.541-9.444l-3.015-11.652c-16.414,1.39-33.949,9.094-50.693,7.274   c-17.212,11.611-23.963,12.324-30.581,30.625l-1.949,32.287l16.726,28.787l29.186,11.254l16.297-6.545   c6.713,7.668,32.593-0.375,21.732,17.551c-6.14,4.549,20.773,40.609,14.224,62.049c10.081,13.127,13.021,28.82,18.923,42.732   l34.311-6.654c3.818-9.398,9.372-19.635,19.105-28.055c-4.148-14.266,8.967-21.15,16.415-30.641   c4.863-11.768-5.948-19.742-2.249-30.711c9.359-17.48,42.574-40.648,32.063-51.081h-4.684c-6.813-2.583-16.905-1.606-22.591-0.785   c-9.621-18.657-35.426-34.511-30.881-52.567c12.256,15.006,23.283,29.783,32.544,45.221c0.828,1.425,1.668,2.927,2.483,4.423   c1.626-0.605,27.194-9.275,44.057-29.911l-9.777-10.2l-16.346,4.325c-4.911-5.439-8.605-12.094-9.676-18.281   c11.888,5.227,22.734,12.842,36.51,13.172c2.409,3.396,4.583,14.186,6.574,17.782c1.514,2.683,3.887,0.55,5.332,3.272   c1.389,2.734,5.647,15.704,6.905,18.021c2.54,4.814,6.059,3.495,8.55,2.605c3.556-9.615,7.267-18.766,12.797-27.13   c2.354-3.45,3.692-5.753,10.28-7.687c4.109,0.818,3.586-7.98,7.019-10.505c1.837-0.694,5.254-1.827,6.713,0.731   c7.093,6.191,5.05,7.233,8.294,16.838c3.013,0.713,4.62,6.758,10.355,4.389l9.975,16.585   C1126.114,452.452,1127.608,453.772,1130.518,459.049"
       id="path3819"
       fill="#009482" /><path
       clip-path="url(#SVGID_2_)"
       d="M1215.746,565.17c1.078-2.553,0.218-4.654-0.019-7.223   c-0.242-2.391,0.35-5.314-0.205-7.705c-0.511-2.389-1.458-3.193-1.898-5.781c-0.511-2.318,0.111-4.992-0.144-7.346   c-0.68,0.176-1.552-0.25-2.212-0.125c-0.404-4.047,0.361-10.256-1.692-13.754c-4.683,0.537,0.343-14.838-1.464-17.459   c-0.766-0.193-2.828,2.836-3.594,5.902c-1.163,2.247-2.839,6.207-3.643,9.348c-0.797,3.424-3.83,8.275-3.973,8.563   c-1.339-0.125-6.201-4.529-5.193-8.365c0.511-2.089,3.214-7.029,0.804-9.078c-4.129-3.604-13.663,2.317-15.337,5.957   c1.494,1.479,1.763,3.672,2.167,5.564c-2.74,0.25-7.723-0.23-9.067-1.893c-4.333,3.088-4.515,4.139-8.718,7.385   c-2.241,1.768-4.216,3.996-6.737,5.031c-2.51,1.033-4.721,0.783-7.057,2.137c-6.606,3.709-4.763,9.525-5.143,14.396   c-0.454,4.867-3.032,11.467-4.371,14.355c-1.203,2.818-2.249,5.281,0.767,7.758c3.257,2.926,14.009-4.602,19.048-7.15   c2.728-1.426,5.865-2.053,8.625-2.176c3.361-0.033,5.118,0.176,6.898,2.248c2.211,2.477,4.285,8.754,4.285,8.754   c1.139-0.73,2.279-1.334,3.331-1.836c0.242,5.064-1.401,11.451,3.779,14.02c4.061,2.051,10.806,1.104,15.456,0.928   c0.405-3.031-0.087-4.922,1.52-7.635c0.978-1.873,2.857-3.371,4.216-4.816C1209.207,572.02,1213.879,569.359,1215.746,565.17"
       id="path3821"
       fill="#009482" /><path
       clip-path="url(#SVGID_2_)"
       d="M1216.974,595.523c-3.974,1.947-10.63,1.162-12.143,6.695   c3.412,4.846,4.65-2.252,10.243-2.699l5.317-0.695c0.475-1.551,5.878-7.596,4.876-10.701   C1222.833,588.748,1217.303,590.371,1216.974,595.523"
       id="path3823"
       fill="#009482" /><path
       clip-path="url(#SVGID_2_)"
       d="M1233.643,581.025c-0.405-1.25,0.192-7.133-2.51-6.35   c-2.894,0.82,0.735,8.08-4.01,8.275c-1.358,0.465-6.979,1.053-1.851,2.531c5.113,1.465,4.167,6.385,6.87,4.086   c4.515-3.836,7.234-2.443,6.227-5.832C1236.851,582.986,1234.446,581.598,1233.643,581.025"
       id="path3825"
       fill="#009482" /><path
       clip-path="url(#SVGID_2_)"
       d="M1123.126,466.343c0-0.015,0-0.015,0.019-0.034   c0-0.142-0.019-0.248-0.019-0.392V466.343z"
       id="path3827"
       fill="#009482" /><path
       clip-path="url(#SVGID_2_)"
       d="M1143.226,494.988c1.812,1.213,2.472,1.464,4.933,1.676   c1.514,0.07,18.157,2.105,18.682,0.645c-11.246-0.25-20.396-5.602-21.944-6.243c-0.331-3.41-0.866-5.031-2.615-8.027   c-0.226-0.425-5.449-6.313-6.428-7.295c-3.873-3.726-4.62-5.118-6.232-7.294c-1.17-1.676-5.935-7.74-6.483-2.141   c-0.142,4.244,3.6,6.066,7.561,12.665C1131.868,480.47,1141.495,493.759,1143.226,494.988"
       id="path3829"
       fill="#009482" /><path
       clip-path="url(#SVGID_2_)"
       d="M1166.84,465.685c-1.258-1.087-3.8,0.482-5.332,1.517   c-6.681,5.601-8.331,7.347-8.331,7.347c-3.351,2.319-1.655,4.602-1.495,7.528c0.462,6.207,0.294,9.023,10.206,7.455   c0-5.886,3.531-12.54,6.707-15.801C1164.746,470.447,1169.049,468.234,1166.84,465.685"
       id="path3831"
       fill="#009482" /><path
       clip-path="url(#SVGID_2_)"
       d="M1190.178,488.568c0.473,0.963,4.969,1.621,5.294,2.746   c2.041,6.242,1.152,14.375,5.934,13.355c0.729-1.229,1.937-2.281,1.757-3.172c6.463-1.195,10.044,8.364,15.561,6.688   c-0.187-2.693-2.926-5.209-3.873-7.562c-1.183-3.068-1.861-4.424-4.148-7.133c-1.494-1.838-7.802-3.105-9.968-4.176   c-2.086-1.139-0.255-3.727-2.629-4.814l-5.155,0.982C1193.043,486.818,1189.374,487.016,1190.178,488.568"
       id="path3833"
       fill="#009482" /><path
       clip-path="url(#SVGID_2_)"
       d="M1176.285,479.398c0.381-1.444-1.413-1.816-2.496-3.172   c-2.162,0.32-2.198,1.283-3.551,2.032c0,0-0.019,0.644-0.802,2.142c-1.171,2.156-3.213,1.959-2.771,6.9   c0.253,2.658,2.054,3.799,4.252,4.941c0,0,1.773-1.891,1.569-4.816c-1.133-2.176-1.607-5.101-1.238-6.402   C1174.056,478.92,1174.821,480.203,1176.285,479.398"
       id="path3835"
       fill="#009482" /><path
       clip-path="url(#SVGID_2_)"
       d="M1184.095,444.443c0.696-1.373-0.711-5.367-0.711-5.367   s-5.572-14.777-7.055-15.422c-1.421-0.71-4.328,0.225-4.521,1.758c-0.188,1.4,3.319,10.32,3.319,10.32s-0.256,6.41,0.896,7.501   c1.096,1.067,5.566,5.062,5.566,5.062S1183.384,445.799,1184.095,444.443"
       id="path3837"
       fill="#009482" /><path
       clip-path="url(#SVGID_2_)"
       d="M1183.392,465.344c0,0,2.266-2.137,3.194-3.387   c0.951-1.177,2.521-5.813,2.521-5.813s-1.078-6.707-5.207-4.354c-4.078,2.354-5.877,6.207-5.005,7.491   C1179.792,460.514,1183.392,465.344,1183.392,465.344"
       id="path3839"
       fill="#009482" /><path
       clip-path="url(#SVGID_2_)"
       d="M1183.602,591.939c-2.57,1.498-3.679,3.852-3.138,4.639   c0.529,0.748,2.778,3.711,2.778,3.711s1.369-1.287,1.979-2.033c0.58-0.785,1.602-3.656,1.602-3.656   S1186.149,590.441,1183.602,591.939"
       id="path3841"
       fill="#009482" /><path
       clip-path="url(#SVGID_2_)"
       d="M1239.819,330.663c-1.406-2.469-3.76-4.02-5.642-6.028   c-0.106,0.109-0.236,0.295-0.311,0.454c-0.822,1.482-2.447,4.345-2.516,6.031c-0.094,2.646,2.372,3.03,2.72,5.037   c0.892,4.46-7.422,10.229-11.015,12.699c-5.99,4.066-7.093,3.317-7.876,10.968c-0.318,2.766-2.51,15.561,5.229,9.864   c5.349-3.87,1.06-10.131,2.067-14.278l3.632-2.737c3.985-1.024,5.696,2.024,5.086,5.35c1.083,0,2.746-0.222,3.768-0.767   c1.775-0.828,5.604-8.57,6.376-10.523C1242.908,342.043,1242.36,334.954,1239.819,330.663"
       id="path3843"
       fill="#009482" /><polygon
       clip-path="url(#SVGID_2_)"
       points="2776.295,143.617 2619.187,575.676 2499.728,143.967 2377.054,143.967    2396.725,211.916 2264.942,575.676 2145.483,143.967 2022.811,143.967 2191.569,720.918 2272.098,720.918 2425.332,308.983    2545.832,720.918 2626.354,720.918 2846.587,143.617  "
       id="polygon3845"
       style="fill:#ffffff"
       fill="#004A97" /><path
       clip-path="url(#SVGID_2_)"
       d="M3078.867,142.484c-41.533,12.05-78.011,31.177-109.347,57.511   c-31.297,26.038-56.361,59.953-75.209,101.793c-18.584,41.7-28.072,92.655-28.072,153.127c0,41.093,7.204,79.026,21.596,114.073   c14.379,35.262,35.188,65.418,62.513,91.043c27.343,25.568,60.677,45.443,100.324,59.506   c39.36,14.123,84.413,21.258,135.015,21.258c70.429,0,128.676-11.52,174.868-34.385l17.709-68.635l-4.403-2.617   c-8.935,9.043-19.222,17.387-30.96,24.945c-12.821,8.42-26.413,15.395-40.843,21.086c-14.466,5.816-29.086,10.201-43.963,13.512   c-15.106,3.291-29.84,5.033-44.324,5.033c-25.854,0-51.647-4.92-77.134-14.484c-25.718-9.615-48.653-24.934-68.915-45.619   c-20.171-20.961-36.509-47.709-49.045-80.15c-12.591-32.781-18.712-72.09-18.712-117.756c0-47.39,5.996-88.23,18.282-122.707   c12.217-34.261,28.108-62.681,48.104-84.887c19.739-22.268,41.981-38.997,66.449-49.77c24.416-10.907,48.745-16.398,73.143-16.398   c81.792-0.33,117.659,42.188,135.302,81.765h14.121l27.967-85.313c-8.936-4.968-19.546-9.675-31.889-14.171   c-14.235-5.243-29.057-9.677-44.717-13.475c-15.673-3.779-31.938-6.774-48.814-9.095c-16.744-2.401-32.617-3.54-47.599-3.54   C3164.427,124.134,3120.563,130.286,3078.867,142.484"
       id="path3847"
       style="fill:#ffffff"
       fill="#004A97" /><path
       clip-path="url(#SVGID_2_)"
       d="M1935.773,462.991l0.394-319.541h-62.67v349.467   c-0.055,61.462-25.859,199.831-162.675,199.831c-113.757,0-128.619-109.227-128.619-251.41l0.348-297.888h-118.239l0.225,375.829   c0,107.549,71.717,219.947,220.873,219.947c131.516,0,250.364-44.945,250.364-276.197"
       id="path3849"
       style="fill:#ffffff"
       fill="#004A97" /><path
       clip-path="url(#SVGID_2_)"
       d="M974.485,55.281c-201.955,0-365.664,163.709-365.664,365.664   c0,60.774,14.9,118.023,41.129,168.461c10.026-13.943,18.757-28.875,26.185-44.514c-16.004-38.331-24.876-80.401-24.876-124.519   c0-178.503,144.696-323.216,323.227-323.216c178.506,0,323.221,144.713,323.221,323.216c0,178.522-144.715,323.235-323.221,323.235   c-89.763,0-170.851-36.727-229.422-95.809c-8.183,11.883-17.008,23.289-26.396,34.174   c65.955,64.662,156.173,104.652,255.818,104.652c201.931,0,365.664-163.709,365.664-365.682   C1340.149,218.99,1176.416,55.281,974.485,55.281"
       id="path3851"
       style="fill:#ffffff"
       fill="#004A97" /><path
       clip-path="url(#SVGID_2_)"
       d="M739.364,252.43c-9.913,13.787-18.538,28.563-25.93,43.991   c15.867,38.193,24.66,80.052,24.66,123.953c0,178.522-144.707,323.235-323.231,323.235c-178.501,0-323.218-144.713-323.218-323.235   c0-178.503,144.716-323.197,323.218-323.197c90.131,0,171.495,36.979,230.118,96.46c8.038-11.629,16.676-22.848,25.88-33.548   C604.898,95.327,514.599,55.281,414.863,55.281c-201.937,0-365.665,163.709-365.665,365.683   c0,201.94,163.728,365.663,365.665,365.663c201.958,0,365.687-163.723,365.687-365.663   C780.55,360.145,765.63,302.868,739.364,252.43"
       id="path3853"
       style="fill:#ffffff"
       fill="#004A97" /></g></svg>